# xmcd
#
# Track frame offsets:
#	150
#	12346
#	28522
#	46378
#	62137
#	74531
#	92321
#	107938
#	121323
#	142007
#	159464
#	176035
#	194998
#	217235
#	231233
#
# Disc length: 3339 seconds
#
# Revision: 1
# Processed by: cddbd v1.5.2PL0 Copyright (c) Steve Scherf et al.
# Submitted via: audiograbber 1.83.01
#
DISCID=e40d090f
DTITLE=Garth Brooks - Country Artist Series
DYEAR=1900
DGENRE=
TTITLE0=Two Of A Kind
TTITLE1=What She's Doing Now
TTITLE2=The Thunder Rolls
TTITLE3=Unanswered Prayers
TTITLE4=Callin' Baton Rouge
TTITLE5=Standing Outside The Fire
TTITLE6=Somewhere Other Than The Night
TTITLE7=Papa Loved Me
TTITLE8=The River
TTITLE9=Rodeo
TTITLE10=American Honky-Tonk Bar Association
TTITLE11=Learning To Live Again
TTITLE12=That Summer
TTITLE13=She's Every Woman
TTITLE14=We Shall Be Free
EXTD=
EXTT0=
EXTT1=
EXTT2=
EXTT3=
EXTT4=
EXTT5=
EXTT6=
EXTT7=
EXTT8=
EXTT9=
EXTT10=
EXTT11=
EXTT12=
EXTT13=
EXTT14=
PLAYORDER=
